<?xml version="1.0" encoding="utf-8"?>
<!-- Generator: Adobe Illustrator 22.0.0, SVG Export Plug-In . SVG Version: 6.00 Build 0)  -->
<svg version="1.1" id="Layer_1" xmlns="http://www.w3.org/2000/svg" xmlns:xlink="http://www.w3.org/1999/xlink" x="0px" y="0px"
	 viewBox="0 0 17 18" style="enable-background:new 0 0 17 18;" xml:space="preserve">
<style type="text/css">
	.st0{enable-background:new    ;}
	.st1{fill:#FFFFFF;}
</style>
<title></title>
<desc>Created with Sketch.</desc>
<g id="Search" transform="translate(-790.000000, -45.000000)">
	<g id="Group-9" transform="translate(202.000000, 29.000000)">
		<g class="st0">
			<path class="st1" d="M603.4,33.6c-0.3,0-0.7-0.1-0.9-0.4l-3.4-3.4c-1.2,0.8-2.6,1.2-4,1.2c-3.9,0-7.1-3.2-7.1-7.1
				c0-3.9,3.2-7.1,7.1-7.1c3.9,0,7.1,3.2,7.1,7.1c0,1.4-0.4,2.8-1.2,4l3.4,3.4c0.2,0.2,0.4,0.6,0.4,0.9
				C604.7,33,604.1,33.6,603.4,33.6z M595.1,19.4c-2.5,0-4.5,2-4.5,4.5c0,2.5,2,4.5,4.5,4.5c2.5,0,4.5-2,4.5-4.5
				C599.6,21.5,597.5,19.4,595.1,19.4z"/>
		</g>
	</g>
</g>
</svg>
