<?xml version="1.0" encoding="UTF-8"?>
<svg width="14px" height="14px" viewBox="0 0 14 14" version="1.1" xmlns="http://www.w3.org/2000/svg" xmlns:xlink="http://www.w3.org/1999/xlink">
    <!-- Generator: Sketch 48.2 (47327) - http://www.bohemiancoding.com/sketch -->
    <title></title>
    <desc>Created with Sketch.</desc>
    <defs></defs>
    <g id="Footer" stroke="none" stroke-width="1" fill="none" fill-rule="evenodd" transform="translate(-1154.000000, -116.000000)">
        <g id="Group-7" transform="translate(1144.000000, 106.000000)" fill="#5E170E">
            <path d="M19.3331435,17 C19.3331435,15.7149483 18.2850517,14.6668565 17,14.6668565 C15.7149483,14.6668565 14.6668565,15.7149483 14.6668565,17 C14.6668565,18.2850517 15.7149483,19.3331435 17,19.3331435 C18.2850517,19.3331435 19.3331435,18.2850517 19.3331435,17 Z M20.5908536,17 C20.5908536,18.9868175 18.9868175,20.5908536 17,20.5908536 C15.0131825,20.5908536 13.4091464,18.9868175 13.4091464,17 C13.4091464,15.0131825 15.0131825,13.4091464 17,13.4091464 C18.9868175,13.4091464 20.5908536,15.0131825 20.5908536,17 Z M21.5751485,13.2633249 C21.5751485,13.7281308 21.201481,14.1017984 20.7366751,14.1017984 C20.2718692,14.1017984 19.8982016,13.7281308 19.8982016,13.2633249 C19.8982016,12.798519 20.2718692,12.4248515 20.7366751,12.4248515 C21.201481,12.4248515 21.5751485,12.798519 21.5751485,13.2633249 Z M17,11.2582798 C15.9792497,11.2582798 13.7919277,11.1762552 12.8714297,11.5408089 C12.5524453,11.6684026 12.3154854,11.8233379 12.0694117,12.0694117 C11.8233379,12.3154854 11.6684026,12.5524453 11.5408089,12.8714297 C11.1762552,13.7919277 11.2582798,15.9792497 11.2582798,17 C11.2582798,18.0207503 11.1762552,20.2080723 11.5408089,21.1285703 C11.6684026,21.4475547 11.8233379,21.6845146 12.0694117,21.9305883 C12.3154854,22.1766621 12.5524453,22.3315974 12.8714297,22.4591911 C13.7919277,22.8237448 15.9792497,22.7417202 17,22.7417202 C18.0207503,22.7417202 20.2080723,22.8237448 21.1285703,22.4591911 C21.4475547,22.3315974 21.6845146,22.1766621 21.9305883,21.9305883 C22.1766621,21.6845146 22.3315974,21.4475547 22.4591911,21.1285703 C22.8237448,20.2080723 22.7417202,18.0207503 22.7417202,17 C22.7417202,15.9792497 22.8237448,13.7919277 22.4591911,12.8714297 C22.3315974,12.5524453 22.1766621,12.3154854 21.9305883,12.0694117 C21.6845146,11.8233379 21.4475547,11.6684026 21.1285703,11.5408089 C20.2080723,11.1762552 18.0207503,11.2582798 17,11.2582798 Z M23.9994304,17 C23.9994304,17.9660672 24.0085442,18.9230206 23.9538612,19.8890878 C23.8991781,21.0100903 23.6439906,22.0034991 22.8237448,22.8237448 C22.0034991,23.6439906 21.0100903,23.8991781 19.8890878,23.9538612 C18.9230206,24.0085442 17.9660672,23.9994304 17,23.9994304 C16.0339328,23.9994304 15.0769794,24.0085442 14.1109122,23.9538612 C12.9899097,23.8991781 11.9965009,23.6439906 11.1762552,22.8237448 C10.3560094,22.0034991 10.1008219,21.0100903 10.0461388,19.8890878 C9.99145577,18.9230206 10.0005696,17.9660672 10.0005696,17 C10.0005696,16.0339328 9.99145577,15.0769794 10.0461388,14.1109122 C10.1008219,12.9899097 10.3560094,11.9965009 11.1762552,11.1762552 C11.9965009,10.3560094 12.9899097,10.1008219 14.1109122,10.0461388 C15.0769794,9.99145577 16.0339328,10.0005696 17,10.0005696 C17.9660672,10.0005696 18.9230206,9.99145577 19.8890878,10.0461388 C21.0100903,10.1008219 22.0034991,10.3560094 22.8237448,11.1762552 C23.6439906,11.9965009 23.8991781,12.9899097 23.9538612,14.1109122 C24.0085442,15.0769794 23.9994304,16.0339328 23.9994304,17 Z" id=""></path>
        </g>
    </g>
</svg>