<?xml version="1.0" encoding="UTF-8"?>
<svg width="16px" height="13px" viewBox="0 0 16 13" version="1.1" xmlns="http://www.w3.org/2000/svg" xmlns:xlink="http://www.w3.org/1999/xlink">
    <!-- Generator: Sketch 48.1 (47250) - http://www.bohemiancoding.com/sketch -->
    <title>Twitter</title>
    <desc>Created with Sketch.</desc>
    <defs></defs>
    <g id="Footer" stroke="none" stroke-width="1" fill="none" fill-rule="evenodd" transform="translate(-1207.000000, -117.000000)">
        <g id="Group-6" transform="translate(1198.000000, 106.000000)" fill="#5E170E">
            <path d="M25,12.54375 C24.4111675,12.7976562 23.7715736,12.9804688 23.1116751,13.0515625 C23.7918782,12.6453125 24.3096447,12.0054688 24.5532995,11.24375 C23.9238579,11.6195312 23.213198,11.89375 22.4720812,12.0359375 C21.8730964,11.3960938 21.0203046,11 20.0761421,11 C18.2588832,11 16.7969543,12.4726562 16.7969543,14.2804688 C16.7969543,14.534375 16.8274112,14.7882813 16.8781726,15.0320312 C14.1573604,14.8898438 11.7309645,13.5898438 10.1167513,11.5992188 C9.83248731,12.0867187 9.67005076,12.6453125 9.67005076,13.2546875 C9.67005076,14.3921875 10.248731,15.3976562 11.1319797,15.9867187 C10.5939086,15.9664062 10.0862944,15.8140625 9.64974619,15.5703125 L9.64974619,15.6109375 C9.64974619,17.2054687 10.7766497,18.5257813 12.2791878,18.8304688 C12.0050761,18.9015625 11.7106599,18.9421875 11.4162437,18.9421875 C11.2030457,18.9421875 11,18.921875 10.7969543,18.8914062 C11.213198,20.1914062 12.4213198,21.1359375 13.8629442,21.1664063 C12.7360406,22.05 11.3248731,22.5679687 9.79187817,22.5679687 C9.5177665,22.5679687 9.26395939,22.5578125 9,22.5273438 C10.4517766,23.4617188 12.177665,24 14.035533,24 C20.0659898,24 23.3654822,19.003125 23.3654822,14.6664063 C23.3654822,14.5242187 23.3654822,14.3820313 23.3553299,14.2398438 C23.9949239,13.7726563 24.5532995,13.19375 25,12.54375 Z" id="Twitter"></path>
        </g>
    </g>
</svg>